<svg xmlns="http://www.w3.org/2000/svg" version="1.1" xmlns:xlink="http://www.w3.org/1999/xlink" xmlns:svgjs="http://svgjs.com/svgjs" width="1000" height="1000"><rect width="1000" height="1000" rx="200" ry="200" fill="#10230f"></rect><g transform="matrix(7,0,0,7,150,205.11900329589844)"><svg xmlns="http://www.w3.org/2000/svg" version="1.1" xmlns:xlink="http://www.w3.org/1999/xlink" xmlns:svgjs="http://svgjs.com/svgjs" width="100" height="85"><svg width="100" height="85" viewBox="0 0 100 85" fill="none" xmlns="http://www.w3.org/2000/svg">
  <path d="M69.9483 0.0342803C65.1316 0.0550358 60.3913 1.23357 56.1314 3.46944C59.8823 7.22945 62.79 11.7368 64.6632 16.6948C66.4039 16.03 68.2566 15.7035 70.121 15.733C77.513 15.733 80.6564 19.5804 80.6564 24.5957V59.4969C80.6564 64.5122 77.513 68.394 70.121 68.394C62.7289 68.394 59.7583 64.5122 59.7583 59.4969V29.7141C59.7583 25.812 58.9854 21.9481 57.4838 18.343C55.9823 14.7379 53.7815 11.4622 51.0069 8.703C48.2324 5.94379 44.9385 3.75504 41.3134 2.26177C37.6883 0.768491 33.8028 0 29.879 0C25.9552 0 22.07 0.768491 18.4449 2.26177C14.8198 3.75504 11.5259 5.94379 8.75134 8.703C5.9768 11.4622 3.776 14.7379 2.27443 18.343C0.772865 21.9481 -3.30751e-07 25.812 0 29.7141V54.3785C0.00196391 59.502 1.33593 64.5378 3.87252 68.9972C6.40912 73.4566 10.062 77.1881 14.4766 79.8292C18.8913 82.4702 23.9177 83.9313 29.0678 84.0704C34.2178 84.2095 39.3163 83.022 43.8686 80.6232C40.1103 76.8691 37.2015 72.3601 35.3368 67.3978C33.604 68.0935 31.7473 68.4324 29.879 68.394C22.487 68.394 19.3436 64.5122 19.3436 59.4969V24.63C19.3436 19.6147 22.487 15.7674 29.879 15.7674C37.2711 15.7674 40.2417 19.6147 40.2417 24.63V42.0807V54.4129C40.2417 62.2936 43.3897 69.8514 48.9931 75.4239C54.5965 80.9964 62.1965 84.127 70.121 84.127C78.0454 84.127 85.6452 80.9964 91.2487 75.4239C96.8521 69.8514 100 62.2936 100 54.4129V29.7485C100 25.8319 99.2217 21.9539 97.7093 18.3375C96.197 14.7212 93.9806 11.4378 91.1877 8.67637C88.3949 5.91491 85.0807 3.7298 81.4356 2.24667C77.7905 0.763535 73.8866 0.0116409 69.9483 0.0342803Z" fill="#F5EEEE"></path>
</svg></svg></g></svg>