<svg width="521" height="1030" viewBox="0 0 521 1030" fill="none" xmlns="http://www.w3.org/2000/svg">
<path fill-rule="evenodd" clip-rule="evenodd" d="M91 0C44.6081 0 7 37.6081 7 84V164H3C1.34315 164 0 165.343 0 167V200C0 201.657 1.34315 203 3 203H7V238H3C1.34315 238 0 239.343 0 241V312C0 313.657 1.34315 315 3 315H7V336H3C1.34315 336 0 337.343 0 339V410C0 411.657 1.34315 413 3 413H7V946C7 992.392 44.6081 1030 91 1030H430C476.392 1030 514 992.392 514 946V387H517C519.209 387 521 385.209 521 383V268C521 265.791 519.209 264 517 264H514V84C514 37.6081 476.392 0 430 0H91ZM383 37C383 50.8071 371.807 62 358 62H162C148.193 62 137 50.8071 137 37V34V31C137 28.7909 135.209 27 133 27H128H124H88C59.2812 27 36 50.2812 36 79V952C36 980.719 59.2812 1004 88 1004H433C461.719 1004 485 980.719 485 952V79C485 50.2812 461.719 27 433 27H396H389H387C384.791 27 383 28.7909 383 31V35V37Z" fill="#4D4D4F"/>
<path fill-rule="evenodd" clip-rule="evenodd" d="M90 8C48.5786 8 15 41.5787 15 83V948C15 989.421 48.5786 1023 90 1023H431C472.421 1023 506 989.421 506 948V83C506 41.5786 472.421 8 431 8H90ZM358 62C371.807 62 383 50.8071 383 37V35V31C383 28.7909 384.791 27 387 27H389H396H433C461.719 27 485 50.2812 485 79V952C485 980.719 461.719 1004 433 1004H88C59.2812 1004 36 980.719 36 952V79C36 50.2812 59.2812 27 88 27H124H128H133C135.209 27 137 28.7909 137 31V34V37C137 50.8071 148.193 62 162 62H358Z" fill="#231F20"/>
<rect x="235" y="29" width="51" height="9" rx="4.5" fill="#D9D9D9"/>
<circle cx="314" cy="34" r="7" fill="#D9D9D9"/>
<rect width="1" height="24" transform="matrix(-1 0 0 1 7 179)" fill="#231F20"/>
<rect width="1" height="36" transform="matrix(-1 0 0 1 7 279)" fill="#231F20"/>
<rect width="1" height="36" transform="matrix(-1 0 0 1 7 377)" fill="#231F20"/>
<rect width="1" height="5" transform="matrix(-1 0 0 1 7 172)" fill="#231F20"/>
<rect width="1" height="7" transform="matrix(-1 0 0 1 7 269)" fill="#231F20"/>
<rect width="1" height="7" transform="matrix(-1 0 0 1 7 367)" fill="#231F20"/>
<rect width="1" height="59" transform="matrix(-1 0 0 1 515 328)" fill="#231F20"/>
<rect width="1" height="7" transform="matrix(-1 0 0 1 515 315)" fill="#231F20"/>
</svg>
